<svg xmlns="http://www.w3.org/2000/svg" xmlns:xlink="http://www.w3.org/1999/xlink" version="1.1" x="0px" y="0px" viewBox="0 0 64 80" enable-background="new 0 0 64 64" xml:space="preserve"><path d="M49,20.5c0.553,0,1-0.448,1-1s-0.447-1-1-1s-1,0.448-1,1S48.447,20.5,49,20.5z M30,20.5c0.553,0,1-0.448,1-1s-0.447-1-1-1  s-1,0.448-1,1S29.447,20.5,30,20.5z M28,11.5c0.553,0,1-0.448,1-1s-0.447-1-1-1s-1,0.448-1,1S27.447,11.5,28,11.5z M41,15.5  c0.553,0,1-0.448,1-1s-0.447-1-1-1s-1,0.448-1,1S40.447,15.5,41,15.5z M10,36.5H7c-0.552,0-1,0.447-1,1s0.448,1,1,1h3  c0.552,0,1-0.447,1-1S10.552,36.5,10,36.5z M58,44.5c3.309,0,6-2.691,6-6s-2.691-6-6-6h-1.538c0.534-0.594,0.941-1.301,1.206-2.081  C59,30.114,60,28.924,60,27.5c0-1.154-0.662-2.146-1.62-2.648C59.403,23.768,60,22.234,60,20.5c0-11.267-14.236-18-28-18  S4,9.233,4,20.5c0,1.734,0.597,3.268,1.62,4.352C4.662,25.354,4,26.346,4,27.5c0,1.424,1,2.614,2.333,2.919  c0.264,0.78,0.671,1.487,1.206,2.081H6c-3.309,0-6,2.691-6,6s2.691,6,6,6h2v3.121c-2.808,0.545-4,3.317-4,4.879c0,4.248,3.849,9,9,9  h38c5.151,0,9-4.752,9-9c0-1.562-1.191-4.334-4-4.879V44.5H58z M32,4.5c12.504,0,26,6.117,26,16c0,1.871-0.965,3.38-2.457,3.845  c-0.331,0.103-0.692,0.155-1.073,0.155H9.53c-0.38,0-0.741-0.052-1.073-0.155C6.964,23.88,6,22.371,6,20.5  C6,10.617,19.496,4.5,32,4.5z M7,28.5c-0.551,0-1-0.449-1-1s0.449-1,1-1h50c0.552,0,1,0.449,1,1s-0.448,1-1,1H31  c-0.552,0-1,0.448-1,1v4c0,0.781-0.439,1.473-1.159,1.812C28.585,35.437,28.302,35.5,28,35.5c-1.103,0-2-0.897-2-2  c0-0.553-0.448-1-1-1s-1,0.447-1,1v4c0,1.103-0.897,2-2,2s-2-0.897-2-2.02V29.5c0-0.552-0.448-1-1-1H7z M55.458,30.5  c-0.699,1.205-2.003,2-3.458,2c-2.14,0-3.231,1.31-4.108,2.362C47.02,35.908,46.47,36.5,45.33,36.5  c-1.147,0-1.698-0.594-2.572-1.643c-0.876-1.05-1.966-2.357-4.098-2.357c-2.14,0-3.231,1.31-4.108,2.362  C33.68,35.908,33.13,36.5,31.99,36.5c-0.439,0-0.79-0.094-1.099-0.255C31.584,35.514,32,34.538,32,33.5v-3H55.458z M18,30.5v5.905  c-0.725-0.196-1.219-0.726-1.901-1.545C15.223,33.809,14.134,32.5,12,32.5c-1.456,0-2.759-0.795-3.458-2H18z M58,52.5  c0,3.237-3.058,7-7,7H13c-3.942,0-7-3.763-7-7c0-0.463,0.553-2.98,3-2.98h11.049l6.804,6.798c0.188,0.188,0.442,0.293,0.707,0.293  s0.52-0.105,0.707-0.293l6.797-6.798H44v0.98c0,2.206,1.794,4,4,4s4-1.794,4-4v-0.98h3C57.447,49.52,58,52.037,58,52.5z M45,47.52  h-7.936l3.02-3.02H54v3.02h-3c-0.553,0-1,0.447-1,1v1.98c0,1.103-0.897,2-2,2s-2-0.897-2-2v-1.98C46,47.967,45.553,47.52,45,47.52z   M33.945,47.811c-0.001,0.002-0.002,0.003-0.004,0.004l-6.381,6.382l-6.37-6.364c-0.011-0.012-0.021-0.022-0.033-0.033L17.856,44.5  h19.4L33.945,47.811z M18.048,47.52H10V44.5h5.025L18.048,47.52z M6,42.5c-2.206,0-4-1.794-4-4s1.794-4,4-4h6  c1.141,0,1.689,0.593,2.562,1.64c0.798,0.959,1.774,2.132,3.558,2.331c0.039,0.156,0.098,0.305,0.155,0.453  c0.019,0.05,0.031,0.103,0.052,0.151c0.095,0.223,0.211,0.434,0.343,0.633c0.035,0.053,0.079,0.099,0.116,0.149  c0.105,0.142,0.214,0.279,0.336,0.406c0.06,0.063,0.125,0.117,0.188,0.176c0.114,0.104,0.23,0.203,0.356,0.294  c0.074,0.054,0.15,0.104,0.229,0.152c0.129,0.081,0.263,0.152,0.401,0.218c0.082,0.039,0.163,0.079,0.249,0.112  c0.153,0.061,0.313,0.106,0.475,0.147c0.078,0.02,0.152,0.046,0.231,0.061C21.493,41.471,21.743,41.5,22,41.5c2.206,0,4-1.794,4-4  v-0.537c0.191,0.111,0.398,0.198,0.61,0.274c0.057,0.021,0.113,0.041,0.171,0.06c0.196,0.061,0.396,0.109,0.6,0.14  c0.087,0.014,0.173,0.019,0.261,0.027c0.135,0.012,0.269,0.018,0.405,0.017c0.112-0.001,0.221-0.002,0.333-0.012  c0.178-0.015,0.354-0.044,0.527-0.082c0.04-0.01,0.083-0.009,0.123-0.02c0.648,0.574,1.588,1.133,2.961,1.133  c2.132,0,3.222-1.308,4.098-2.357c0.874-1.049,1.425-1.643,2.572-1.643c1.14,0,1.689,0.592,2.562,1.638  C42.099,37.19,43.19,38.5,45.33,38.5c2.132,0,3.222-1.308,4.098-2.357C50.302,35.094,50.853,34.5,52,34.5h6c2.206,0,4,1.794,4,4  s-1.794,4-4,4H6z M56,36.5h-3c-0.553,0-1,0.447-1,1s0.447,1,1,1h3c0.553,0,1-0.447,1-1S56.553,36.5,56,36.5z M17,18.5  c0.553,0,1-0.448,1-1s-0.447-1-1-1s-1,0.448-1,1S16.447,18.5,17,18.5z M40,38.5h-3c-0.553,0-1,0.447-1,1s0.447,1,1,1h3  c0.553,0,1-0.447,1-1S40.553,38.5,40,38.5z"/></svg>