<svg xmlns="http://www.w3.org/2000/svg" viewBox="0 0 64 80" x="0px" y="0px"><title>chicken-bird-farm-animals-food</title><g><path d="M9.032,18.667a3.465,3.465,0,0,0,1.5,5A3.468,3.468,0,0,0,10,25.5,3.5,3.5,0,0,0,13.5,29H16v1A17.969,17.969,0,0,0,30,47.554V48a4,4,0,0,0,3,3.858V53H32a1,1,0,0,0,0,2h1v2H30a1,1,0,0,0,0,2H40a1,1,0,0,0,0-2H35V51.858A4,4,0,0,0,38,48v-.446A17.959,17.959,0,0,0,51.747,33H52.4a4.23,4.23,0,0,0,3.368-1.685,4.21,4.21,0,0,0-1.033-6.03L52.653,23.9l6-5.141A1,1,0,0,0,58,17H52v-.5a6.472,6.472,0,0,0-1.808-4.486l.729-1.093a3.829,3.829,0,0,0-1.976-5.757,3.8,3.8,0,0,0-2.924.207L42.748,7.008a3.849,3.849,0,0,0-1.92,4.637l.085.255A6.478,6.478,0,0,0,39,16.5V25H31.231L29.07,19.959A13.115,13.115,0,0,0,17,12H10.5a3.494,3.494,0,0,0-1.468,6.667ZM12,19h5v3H12a1.5,1.5,0,0,1,0-3Zm0,6.5A1.5,1.5,0,0,1,13.5,24H17v3H13.5A1.5,1.5,0,0,1,12,25.5Zm42.574,2.916a2.192,2.192,0,0,1-.41,1.7A2.225,2.225,0,0,1,52.4,31h-.438c.018-.332.043-.663.043-1V25.868l1.621,1.081A2.194,2.194,0,0,1,54.574,28.416ZM55.3,19,52,21.826V19ZM43.643,8.8,46.916,7.16a1.83,1.83,0,0,1,2.455.819,1.834,1.834,0,0,1-.114,1.833l-.653.979a6.455,6.455,0,0,0-5.956-.123A1.838,1.838,0,0,1,43.643,8.8ZM24,29a1,1,0,0,1,0-2h5v2H24Zm1,4a1,1,0,0,1,0-2h4v2H25Zm1,2h3v2H26a1,1,0,0,1,0-2Zm5-1V27h8v2.386A7.623,7.623,0,0,1,31.386,37H31ZM27.232,20.747,29.055,25H24a2.994,2.994,0,0,0-1.6,5.529,2.955,2.955,0,0,0,1,4A2.967,2.967,0,0,0,23,36a3,3,0,0,0,3,3h5.386A9.625,9.625,0,0,0,41,29.386V16.5a4.5,4.5,0,0,1,9,0V30A15.97,15.97,0,0,1,36.825,45.751a1,1,0,0,0-.825.985V48a2,2,0,0,1-4,0V46.736a1,1,0,0,0-.825-.984A15.971,15.971,0,0,1,18,30V29a1,1,0,0,0,1-1V14.188A11.109,11.109,0,0,1,27.232,20.747ZM10.5,14H17v3H10.5a1.5,1.5,0,0,1,0-3Z"/><path d="M45.45,16.83a.556.556,0,0,0,.17.09.636.636,0,0,0,.18.06A1.355,1.355,0,0,0,46,17a1.5,1.5,0,0,0,.2-.02.636.636,0,0,0,.18-.06.757.757,0,0,0,.18-.09,1.576,1.576,0,0,0,.15-.12l.12-.15a.757.757,0,0,0,.09-.18.636.636,0,0,0,.06-.18A1.355,1.355,0,0,0,47,16a1,1,0,1,0-1.71.71A.955.955,0,0,0,45.45,16.83Z"/></g></svg>