<svg xmlns="http://www.w3.org/2000/svg" xmlns:xlink="http://www.w3.org/1999/xlink" xml:space="preserve" version="1.1" style="shape-rendering:geometricPrecision;text-rendering:geometricPrecision;image-rendering:optimizeQuality;" viewBox="0 0 100 125" x="0px" y="0px" fill-rule="evenodd" clip-rule="evenodd"><defs><style type="text/css">

    .fil0 {fill:black;fill-rule:nonzero}

  </style></defs><g><path class="fil0" d="M27.45 43.21l0 13.58c5.85,0 11.69,0 17.54,0 0.91,0 1.67,-0.75 1.67,-1.67l0 -10.25c0,-0.91 -0.75,-1.66 -1.67,-1.66 -5.85,0 -11.69,0 -17.54,0zm12.43 4.08c1.5,0 2.71,1.21 2.71,2.71 0,1.49 -1.21,2.71 -2.71,2.71 -1.49,0 -2.71,-1.22 -2.71,-2.71 0,-1.5 1.22,-2.71 2.71,-2.71zm-11.21 -7.42l0 -4.6c0,-3.69 3.03,-6.72 6.73,-6.72l33.76 0c3.68,0 6.72,3.03 6.72,6.72l0 29.46c0,3.7 -3.03,6.72 -6.72,6.72l-33.76 0c-3.69,0 -6.73,-3.03 -6.73,-6.72l0 -4.61 -2.89 0c-0.92,0 -1.66,-0.74 -1.66,-1.66l0 -16.92c0,-0.92 0.74,-1.67 1.66,-1.67l2.89 0zm3.34 20.25l0 4.61c0,1.87 1.52,3.39 3.39,3.39l33.76 0c1.85,0 3.39,-1.53 3.39,-3.39l0 -29.46c0,-1.87 -1.53,-3.39 -3.39,-3.39l-33.76 0c-1.87,0 -3.39,1.52 -3.39,3.39l0 4.6 12.98 0c2.75,0 5,2.26 5,5l0 10.25c0,2.76 -2.24,5 -5,5l-12.98 0zm-6.9 -47.59c-1.81,1.22 -3.66,-1.54 -1.85,-2.76 8,-5.36 17.11,-8.1 26.74,-8.1 26.7,0 48.33,21.64 48.33,48.33 0,26.69 -21.63,48.33 -48.33,48.33 -26.69,0 -48.33,-21.64 -48.33,-48.33 0,-9.62 2.87,-19.05 8.25,-27.02 1.23,-1.81 3.99,0.05 2.76,1.86 -5.04,7.47 -7.68,16.15 -7.68,25.16 0,24.85 20.15,45 45,45 24.85,0 45,-20.15 45,-45 0,-24.85 -20.15,-45 -45,-45 -8.95,0 -17.44,2.55 -24.89,7.53z"/></g></svg>