<svg xmlns="http://www.w3.org/2000/svg" xmlns:xlink="http://www.w3.org/1999/xlink" version="1.1" x="0px" y="0px" viewBox="0 0 100 125" style="enable-background:new 0 0 100 100;" xml:space="preserve"><path d="M58.5878906,16.1777344C53.0175781,12.078125,45.1064453,10,35.0703125,10c-0.0234375,0-0.0478516,0-0.0712891,0  c-9.9228516,0.0097656-17.8261719,2.1025391-23.4921875,6.2211914c-1.3183594,0.9599609-1.7871094,2.6489258-1.140625,4.1069336  l21.8564453,49.2177734c0.5039062,1.1337891,1.5869141,1.8378906,2.828125,1.8378906c0,0,0.0009766,0,0.0019531,0  c1.2451172-0.0004883,2.3310547-0.7084961,2.8349609-1.8476562l21.7900391-49.2172852  C60.359375,18.8540039,59.9111328,17.1508789,58.5878906,16.1777344z M19.7023926,36.4237061  c0.9485474-0.2678833,1.9494019-0.2416992,2.8874512,0.112915c1.1552734,0.4379883,2.0703125,1.2998047,2.5771484,2.4267578  c0.9530029,2.1242065,0.1529541,4.5825806-1.7620239,5.7980957L19.7023926,36.4237061z M30.7590942,61.3219604l3.5328979-1.4904175  c0.0019531,0,0.1630859,0.0639648,0.1640625,0.0639648l0.6845703,1.6137695  c0.0273438,0.0634766-0.0039062,0.1376953-0.0654297,0.1640625l-3.5037842,1.4777832L30.7590942,61.3219604z M36.0595703,68.7265625  c-0.2705078,0.609375-0.8398438,0.6572266-1.0078125,0.6572266c-0.0009766,0-0.0009766,0-0.0009766,0  c-0.1679688,0-0.7324219-0.046875-1-0.6494141l-1.6675415-3.7550659l3.472229-1.4646606  c1.078125-0.4589844,1.5830078-1.7084961,1.1269531-2.7861328l-0.6845703-1.6123047  c-0.2197266-0.5224609-0.6308594-0.9277344-1.15625-1.140625c-0.5253906-0.2133789-1.1064453-0.2084961-1.6269531,0.0131836  l-3.5673828,1.5050049l-5.7168579-12.8735962c2.9266357-1.675293,4.1677856-5.34021,2.7608032-8.475647  c-0.7255859-1.6157227-2.0371094-2.8505859-3.6933594-3.4780273c-1.4342651-0.5431519-2.9796753-0.5726929-4.4187622-0.0967407  l-3.6408081-8.1985474c2.0477295-1.4674683,7.5476074-5.0305176,19.7373047-5.0426025c0.0214844,0,0.0419922,0,0.0634766,0  c1.0671387,0,2.1047974,0.0276489,3.1143799,0.0813599c-1.7423706,1.1559448-2.8961182,3.1325684-2.8985596,5.3737183  c-0.0019531,1.7211914,0.6669922,3.3388672,1.8837891,4.5551758c1.2138672,1.2148438,2.8291016,1.8833008,4.5478516,1.8833008  c0.0029297,0,0.0048828,0,0.0068359,0c3.5517578-0.003418,6.4433594-2.8955078,6.4472656-6.4472656  c0.001709-1.5143433-0.5166016-2.9476318-1.4691772-4.0986938c3.1663208,0.8361816,5.8838501,2.0675049,8.1490479,3.675415  l-5.6124268,12.6766357c-0.2557983-0.5771484-0.6085815-1.1126099-1.0684204-1.5722046  c-0.9804688-0.9814453-2.2851562-1.5214844-3.6738281-1.5214844c-0.0019531,0-0.0039062,0-0.0058594,0  c-2.8671875,0.0024414-5.2021484,2.3378906-5.2060547,5.2060547c-0.0009766,1.390625,0.5390625,2.6972656,1.5214844,3.6796875  c0.9814453,0.9804688,2.2851562,1.5205078,3.6728516,1.5205078c0.0019531,0,0.0039062,0,0.0058594,0  c0.5787354-0.0006104,1.1260376-0.1182861,1.6466064-0.2940063L36.0595703,68.7265625z M46.140625,26.7729492  c-0.0019531,2.4506836-1.9980469,4.4467773-4.4492188,4.4492188c-0.0019531,0-0.0029297,0-0.0048828,0  c-1.1845703,0-2.296875-0.4609375-3.1337891-1.2973633c-0.8378906-0.8378906-1.2988281-1.9526367-1.2978516-3.1391602  c0.0019531-2.4511719,1.9980469-4.4472656,4.4492188-4.449707c0.0019531,0,0.0029297,0,0.0048828,0  c1.1845703,0,2.296875,0.4609375,3.1337891,1.2973633C45.6806641,24.4711914,46.1416016,25.5864258,46.140625,26.7729492z   M44.4521484,44.3408203c-0.0009766,0-0.0019531,0-0.0039062,0c-0.8535156,0-1.6552734-0.3320312-2.2587891-0.9350586  c-0.6035156-0.6040039-0.9365234-1.4077148-0.9355469-2.2626953c0.0019531-1.7675781,1.4414062-3.2070312,3.2080078-3.2084961  c0.0009766,0,0.0019531,0,0.0039062,0c0.8544922,0,1.6572266,0.3320312,2.2597656,0.9355469  c0.6035156,0.6035156,0.9355469,1.4072266,0.9345703,2.2617188c0,0.0004883,0,0.0004883,0,0.0004883  C47.6582031,42.8999023,46.2197266,44.3388672,44.4521484,44.3408203z M57.8574219,19.4921875l-2.2173462,5.0081787  c-5.0082397-3.420105-11.9187012-5.1717529-20.6010132-5.1717529c-0.0214844,0-0.0439453,0-0.0654297,0  c-8.6987915,0.0084229-15.420166,1.727356-20.5494385,5.2092896l-2.2298584-5.0213013  c-0.265625-0.5976562-0.0683594-1.2719727,0.4892578-1.6777344C18,13.9736328,25.5087891,12.0092773,35.0009766,12  c0.0224609,0,0.0439453,0,0.0654297,0c9.4667969,0,17.1894531,2.0009766,22.3359375,5.7885742  C57.9580078,18.1972656,58.1445312,18.875,57.8574219,19.4921875z"/><path d="M33.5605469,44.8886719c-0.0019531,0-0.0039062,0-0.0048828,0  c-2.9287109,0.0029297-5.3144531,2.3886719-5.3183594,5.3183594c-0.0009766,1.4204102,0.5507812,2.7553711,1.5546875,3.7587891  c1.0019531,1.0019531,2.3339844,1.5532227,3.7519531,1.5532227c0.0019531,0,0.0039062,0,0.0058594,0  c2.9287109-0.0029297,5.3144531-2.3886719,5.3183594-5.3178711c0-0.0004883,0-0.0004883,0-0.0004883  c0.0009766-1.4204102-0.5507812-2.7548828-1.5537109-3.7578125C36.3115234,45.4404297,34.9785156,44.8886719,33.5605469,44.8886719z   M33.5478516,53.519043c-0.0009766,0-0.0019531,0-0.0039062,0c-0.8837891,0-1.7138672-0.34375-2.3378906-0.9677734  c-0.6259766-0.625-0.9697266-1.4570312-0.96875-2.3417969c0.0019531-1.8291016,1.4921875-3.3188477,3.3203125-3.3208008  c0.0009766,0,0.0019531,0,0.0029297,0c0.8837891,0,1.7148438,0.34375,2.3398438,0.9682617  c0.625,0.625,0.96875,1.456543,0.9677734,2.3413086C36.8662109,52.0273438,35.3759766,53.5170898,33.5478516,53.519043z"/><path d="M29.4912109,27.0473633l-0.6835938-1.6142578c-0.2216797-0.5224609-0.6337891-0.9272461-1.1601562-1.1396484  c-0.5253906-0.2133789-1.1035156-0.2075195-1.6269531,0.0151367l-5.8828125,2.5019531  c-1.0791016,0.4580078-1.5839844,1.7080078-1.1279297,2.7866211l0.6845703,1.6137695  c0.2216797,0.5224609,0.6328125,0.9272461,1.1591797,1.1396484c0.2568359,0.1040039,0.5253906,0.1557617,0.7949219,0.1557617  c0.2822266,0,0.5644531-0.0571289,0.8320312-0.1708984l5.8828125-2.5019531  C29.4423828,29.3754883,29.9472656,28.1254883,29.4912109,27.0473633z M27.5810547,27.9926758l-5.9785156,2.503418  c-0.03125-0.012207-0.0537109-0.0341797-0.0664062-0.0654297c0,0,0,0,0-0.0004883l-0.6845703-1.6137695  c-0.0273438-0.0634766,0.0029297-0.1376953,0.0683594-0.1650391l5.8837891-2.5019531l0.1621094,0.0639648l0.6835938,1.6142578  C27.6767578,27.8911133,27.6464844,27.965332,27.5810547,27.9926758z"/><path d="M29.0800781,34.9125977l2.4902344,5.8789062c0.2216797,0.5224609,0.6328125,0.9267578,1.1591797,1.1396484  c0.2568359,0.1040039,0.5263672,0.1557617,0.7958984,0.1557617c0.2822266,0,0.5644531-0.0566406,0.8320312-0.1704102  l1.6152344-0.6875c1.078125-0.4589844,1.5830078-1.7084961,1.1269531-2.7856445l-2.4902344-5.8789062  c-0.2216797-0.5224609-0.6328125-0.9267578-1.1591797-1.1396484c-0.5253906-0.2128906-1.1044922-0.2080078-1.6279297,0.0146484  l-1.6142578,0.6870117C29.1289062,32.5844727,28.6240234,33.8344727,29.0800781,34.9125977z M30.9892578,33.9672852  c0.0009766,0,0.0009766,0,0.0009766,0l1.6152344-0.6870117l-0.3916016-0.9204102l0.5537109,0.9848633l2.4902344,5.8789062  c0.0273438,0.0634766-0.0039062,0.1376953-0.0683594,0.1650391l-1.6152344,0.6870117l0.3916016,0.9204102l-0.5537109-0.9848633  l-2.4902344-5.8789062C30.8945312,34.0688477,30.9248047,33.9946289,30.9892578,33.9672852z"/><path d="M67.8730469,30.484375c-0.5039062-1.1337891-1.5869141-1.8383789-2.828125-1.8383789c-0.0009766,0-0.0019531,0-0.0019531,0  c-1.2451172,0.0009766-2.3320312,0.7089844-2.8359375,1.8476562L40.4179688,79.7114258  c-0.6826172,1.4648438-0.2333984,3.1679688,1.0898438,4.1411133c5.5703125,4.0996094,13.4814453,6.1777344,23.5166016,6.1777344  c0.0234375,0,0.0478516,0,0.0712891,0c9.9238281-0.0097656,17.828125-2.1030273,23.4912109-6.2211914  c1.3203125-0.9594727,1.7900391-2.6484375,1.1425781-4.1074219L67.8730469,30.484375z M80.3931274,63.605835  c-0.9494019,0.2683716-1.9517212,0.2427979-2.8911743-0.1136475c-1.1533203-0.4379883-2.0673828-1.2998047-2.5732422-2.4262695  c-0.953125-2.1240234-0.152771-4.5822144,1.7619019-5.7975464L80.3931274,63.605835z M69.3366089,38.7081909l-3.5328979,1.4900513  c-0.0019531,0-0.1630859-0.0629883-0.1650391-0.0629883l-0.6835938-1.6142578  c-0.0273438-0.0634766,0.0029297-0.1376953,0.0654297-0.1640625l3.5036621-1.4780884L69.3366089,38.7081909z M64.0351562,31.3032227  c0.2705078-0.609375,0.8398438-0.6567383,1.0087891-0.6572266c0.1679688,0,0.7333984,0.0473633,1.0009766,0.6499023  l1.6674194,3.7547607l-3.4711304,1.4644775c-1.0791016,0.4580078-1.5839844,1.7080078-1.1279297,2.7861328l0.6835938,1.6142578  c0.2216797,0.5224609,0.6328125,0.9272461,1.1591797,1.1396484c0.2578125,0.1040039,0.5273438,0.1557617,0.7958984,0.1557617  c0.2822266,0,0.5634766-0.0566406,0.8291016-0.1699219l3.5673828-1.5045776l5.7171021,12.8739624  c-2.9268799,1.6749878-4.1679077,5.3395996-2.7610474,8.4743652c0.7236328,1.6142578,2.0341797,2.8491211,3.6875,3.4770508  c0.765625,0.2905273,1.5605469,0.4350586,2.3554688,0.4350586c0.6981812,0,1.3956909-0.1121826,2.0698242-0.335144  l3.6398926,8.1964111c-2.0469971,1.4675903-7.5458374,5.0314331-19.7370605,5.0435181c-0.0205078,0-0.0400391,0-0.0615234,0  c-1.0679932,0-2.1065063-0.0276489-3.1168213-0.0814209c1.7426758-1.1557617,2.8966064-3.1322632,2.8990479-5.3736572  c0.0019531-1.7211914-0.6669922-3.3388672-1.8837891-4.5551758c-1.2138672-1.2148438-2.8291016-1.8833008-4.5478516-1.8833008  c-0.0029297,0-0.0048828,0-0.0068359,0c-3.5517578,0.003418-6.4443359,2.8955078-6.4482422,6.4472656  c-0.001709,1.5139771,0.5162354,2.9469604,1.4684448,4.0978394c-3.1654663-0.8361816-5.8825684-2.0671387-8.1474609-3.6746826  l5.6121216-12.6766357c0.2559204,0.5774536,0.6088257,1.1132812,1.0688477,1.5733032  c0.9814453,0.9804688,2.2851562,1.5205078,3.6728516,1.5205078c0.0019531,0,0.0039062,0,0.0058594,0  c2.8671875-0.0029297,5.203125-2.3383789,5.2070312-5.206543c0.0009766-1.390625-0.5390625-2.6967773-1.5214844-3.6791992  c-0.9814453-0.9804688-2.2851562-1.5205078-3.6728516-1.5205078c-0.0019531,0-0.0039062,0-0.0058594,0  c-0.5789185,0.0004883-1.1264648,0.1181641-1.6472778,0.2940674L64.0351562,31.3032227z M53.9541016,73.2573242  c0.0019531-2.4506836,1.9990234-4.4467773,4.4501953-4.4492188c0.0019531,0,0.0029297,0,0.0048828,0  c1.1845703,0,2.296875,0.4609375,3.1337891,1.2973633c0.8378906,0.8378906,1.2988281,1.9526367,1.2978516,3.1391602  c-0.0019531,2.4506836-1.9980469,4.4467773-4.4492188,4.4492188c-0.0019531,0-0.0039062,0-0.0048828,0  c-1.1855469,0-2.2978516-0.4604492-3.1347656-1.2973633C54.4140625,75.5585938,53.953125,74.4438477,53.9541016,73.2573242z   M55.6435547,55.6894531c0.0009766,0,0.0019531,0,0.0039062,0c0.8535156,0,1.6552734,0.3320312,2.2587891,0.9350586  c0.6035156,0.6040039,0.9365234,1.4077148,0.9355469,2.262207c-0.0019531,1.7675781-1.4414062,3.2070312-3.2089844,3.2089844  c-0.0009766,0-0.0019531,0-0.0039062,0c-0.8535156,0-1.6552734-0.3320312-2.2587891-0.9350586  c-0.6035156-0.6040039-0.9365234-1.4077148-0.9355469-2.2626953C52.4365234,57.1303711,53.8759766,55.690918,55.6435547,55.6894531z   M87.4111328,82.1914062c-5.3154297,3.8647461-12.8242188,5.8291016-22.3173828,5.8388672c-0.0224609,0-0.0439453,0-0.0654297,0  c-9.4667969,0-17.1884766-2.0009766-22.3349609-5.7885742c-0.5556641-0.4086914-0.7421875-1.0864258-0.4550781-1.7036133  l2.2172241-5.0082397c5.0082397,3.420105,11.9188843,5.171814,20.6040649,5.171814c0.0205078,0,0.0419922,0,0.0625,0  c8.6991577-0.0084229,15.4207153-1.7275391,20.5492554-5.210144l2.2300415,5.0216675  C88.1669922,81.1108398,87.9697266,81.7851562,87.4111328,82.1914062z"/><path d="M66.5332031,55.1411133c0.0019531,0,0.0039062,0,0.0058594,0c2.9306641-0.0029297,5.3164062-2.3886719,5.3183594-5.3178711  c0.0019531-1.4199219-0.5498047-2.7543945-1.5527344-3.7578125c-1.0019531-1.0024414-2.3349609-1.5541992-3.7529297-1.5541992  c-0.0019531,0-0.0039062,0-0.0058594,0c-2.9296875,0.0024414-5.3164062,2.3881836-5.3183594,5.3183594  c-0.0009766,1.4204102,0.5507812,2.7548828,1.5546875,3.7583008C63.7841797,54.5898438,65.1162109,55.1411133,66.5332031,55.1411133  z M66.5478516,46.5112305c0.0009766,0,0.0019531,0,0.0039062,0c0.8837891,0,1.7138672,0.34375,2.3388672,0.9682617  c0.6240234,0.625,0.9677734,1.456543,0.9667969,2.3413086c-0.0019531,1.8291016-1.4912109,3.3183594-3.3203125,3.3203125  c-0.0009766,0-0.0019531,0-0.0039062,0c-0.8828125,0-1.7128906-0.34375-2.3369141-0.9677734  c-0.6259766-0.625-0.9697266-1.456543-0.96875-2.3417969C63.2294922,48.0019531,64.71875,46.5126953,66.5478516,46.5112305z"/><path d="M70.6044922,72.9824219l0.6835938,1.6142578c0.2216797,0.5224609,0.6328125,0.9272461,1.1591797,1.1396484  c0.2568359,0.1040039,0.5263672,0.1557617,0.7958984,0.1557617c0.28125,0,0.5634766-0.0566406,0.8310547-0.1704102  l5.8857422-2.5024414c1.0761719-0.4594727,1.5810547-1.7089844,1.125-2.7856445l-0.6835938-1.6142578  c-0.2216797-0.5224609-0.6328125-0.9267578-1.1591797-1.1396484c-0.5253906-0.2124023-1.1044922-0.2075195-1.6279297,0.0146484  l-5.8837891,2.5024414C70.6533203,70.6552734,70.1474609,71.9052734,70.6044922,72.9824219z M72.5136719,72.0371094  l5.9794922-2.5029297c0.03125,0.012207,0.0537109,0.0341797,0.0664062,0.0654297l0.6835938,1.6142578  c0.0273438,0.0639648-0.0039062,0.1381836-0.0673828,0.1650391l-5.8847656,2.5019531l-0.1611328-0.0644531l-0.6835938-1.6142578  C72.4189453,72.1381836,72.4492188,72.0639648,72.5136719,72.0371094z"/><path d="M71.015625,65.1176758l-2.4902344-5.8789062c-0.2216797-0.5224609-0.6328125-0.9267578-1.1591797-1.1396484  c-0.5253906-0.2128906-1.1044922-0.2070312-1.6279297,0.0146484l-1.6162109,0.6875  c-1.0771484,0.4584961-1.5820312,1.7080078-1.1259766,2.7856445l2.4902344,5.8789062  c0.2216797,0.5224609,0.6328125,0.9267578,1.1591797,1.1396484c0.2568359,0.1040039,0.5263672,0.1557617,0.7958984,0.1557617  c0.2822266,0,0.5644531-0.0566406,0.8320312-0.1704102l1.6152344-0.6870117v-0.0004883  C70.9667969,67.4443359,71.4716797,66.1948242,71.015625,65.1176758z M69.1054688,66.0634766L67.4902344,66.75l0.3916016,0.9204102  l-0.5537109-0.9848633l-2.4902344-5.8789062c-0.0273438-0.0639648,0.0029297-0.1381836,0.0673828-0.1650391l1.6162109-0.6870117  l-0.3916016-0.9204102l0.5537109,0.9848633l2.4902344,5.8789062C69.2011719,65.9614258,69.1699219,66.0356445,69.1054688,66.0634766  z"/></svg>