<svg xmlns="http://www.w3.org/2000/svg" xmlns:xlink="http://www.w3.org/1999/xlink" version="1.1" x="0px" y="0px" viewBox="0 0 64 80" enable-background="new 0 0 64 64" xml:space="preserve"><g><g><circle cx="22.035" cy="58.037" r="1"/><circle cx="42.035" cy="58.037" r="1"/><circle cx="38.481" cy="32.857" r="1.5"/><circle cx="25.481" cy="32.857" r="1.5"/><path d="M31.98,39.327c1.654,0,3.001-1.346,3.001-3v-2.97h-2v2.97c0,0.552-0.449,1-1.001,1c-0.551,0-0.999-0.448-0.999-1v-2.97h-2    v2.97C28.981,37.981,30.327,39.327,31.98,39.327z"/><path d="M36.371,41.61c-2.635,2.34-6.037,2.34-8.672,0l-1.328,1.494c0.285,0.254,0.582,0.479,0.882,0.689l1.282,2.563l0.747-1.494    c0.898,0.329,1.825,0.501,2.753,0.501s1.854-0.172,2.753-0.501l0.747,1.494l1.282-2.563c0.3-0.211,0.597-0.436,0.882-0.689    L36.371,41.61z"/><path d="M27.277,29.035l1.414-1.414c-1.445-1.447-3.967-1.447-5.414,0l1.414,1.414C25.383,28.344,26.586,28.344,27.277,29.035z"/><path d="M36.274,27.65l1.414,1.414c0.691-0.691,1.895-0.691,2.586,0l1.414-1.414C40.243,26.203,37.722,26.203,36.274,27.65z"/><path d="M57.86,51.561c-0.829-1.529-0.044-2.967-0.015-3.021c0.151-0.26,0.178-0.574,0.071-0.856    c-0.106-0.281-0.334-0.5-0.619-0.595c-2.635-0.879-3.588-1.739-3.591-1.739c-0.035-0.037-0.062-0.07-0.085-0.098    c0.145-0.091,0.385-0.192,0.584-0.24c0.397-0.092,0.699-0.416,0.763-0.818c0.064-0.402-0.123-0.804-0.473-1.014    c-3.922-2.353-7.791-3.5-9.461-3.923v-21.22c0-0.938-0.123-5.68-2.553-6.895c-0.26-0.13-0.562-0.14-0.83-0.029    c-0.268,0.111-0.475,0.333-0.565,0.607c-0.09,0.27-0.381,0.944-0.802,1.497c0.048-1.468-0.243-3.295-1.803-4.075    c-0.311-0.155-0.677-0.137-0.97,0.044c-0.295,0.181-0.476,0.502-0.478,0.848c0,0.02-0.056,2.003-1,2.003s-1-1.983-1-2    c0-0.553-0.447-1-1-1c-2.896,0-3.696,3.983-3.917,6.354c-0.703-0.791-1.548-2.214-2.154-3.727    c-0.152-0.379-0.521-0.628-0.929-0.628c-0.847,0-1.578,0.334-2.112,0.965c-0.926,1.093-1.084,2.937-1.045,4.337    c-0.453-0.547-0.776-1.271-0.895-1.618c-0.091-0.274-0.298-0.496-0.565-0.607c-0.27-0.111-0.571-0.101-0.83,0.029    c-2.43,1.215-2.553,6.789-2.553,7.895v17.206c-1.639,0.412-5.55,1.558-9.515,3.937c-0.348,0.209-0.533,0.608-0.472,1.01    s0.362,0.726,0.757,0.821c0.204,0.049,0.446,0.151,0.591,0.242c-0.017,0.021-0.035,0.043-0.058,0.066    c-0.01,0.009-0.953,0.88-3.62,1.77c-0.282,0.094-0.507,0.313-0.614,0.591c-0.107,0.278-0.083,0.594,0.062,0.854    c0.033,0.061,0.818,1.498-0.011,3.027c-1.127,2.079-2.124,4.711-3.137,8.284l1.924,0.545c0.973-3.427,1.916-5.93,2.971-7.876    c0.815-1.503,0.679-2.939,0.421-3.881c2.394-0.922,3.304-1.785,3.427-1.908c0.777-0.821,0.771-1.553,0.63-2.022    c-0.075-0.248-0.2-0.461-0.353-0.644c2.839-1.489,5.515-2.34,6.996-2.744v1.723c0,4.175,2.022,8.064,5.409,10.516    c0.345,1.398,0.977,2.796,2.144,3.379c0.26,0.13,0.562,0.14,0.83,0.029c0.268-0.111,0.475-0.333,0.565-0.607    c0.113-0.34,0.547-1.325,1.156-1.896c0.2,1.473,0.778,3.639,2.448,4.474c0.311,0.155,0.677,0.136,0.971-0.044    c0.294-0.181,0.475-0.502,0.477-0.848c0-0.021,0.055-2.003,0.999-2.003s1.001,1.983,1.001,2c0,0.321,0.154,0.623,0.415,0.812    c0.173,0.124,0.378,0.188,0.585,0.188c0.106,0,0.213-0.017,0.316-0.052c1.93-0.643,2.849-3.151,3.287-5.52    c3.379-2.456,5.396-6.312,5.396-10.429v-1.709c1.49,0.409,4.132,1.255,6.943,2.73c-0.153,0.183-0.278,0.396-0.354,0.644    c-0.142,0.47-0.147,1.201,0.649,2.042c0.105,0.106,1.014,0.967,3.407,1.889c-0.258,0.941-0.395,2.378,0.421,3.881    c1.055,1.946,1.998,4.449,2.971,7.876l1.924-0.545C59.984,56.271,58.987,53.64,57.86,51.561z M39.987,50.524    c0.039-0.664,0.048-1.196,0.048-1.487h-2c0,2.246-0.431,5.459-1.341,7.081c-0.398-1.087-1.197-2.081-2.66-2.081    c-1.115,0-2.018,0.631-2.527,1.749c-0.34-0.933-0.47-2.086-0.472-2.75c-0.002-0.552-0.449-0.999-1-0.999    c-1.58,0-2.637,1.181-3.259,2.212c-0.5-1.11-0.739-2.94-0.741-4.213l-2,0.001c0,0.119,0.002,0.3,0.011,0.526    c-1.909-2.022-3.011-4.697-3.011-7.526v-21c0.001-1.852,0.297-3.943,0.779-5.15c0.626,1.016,1.672,2.15,3.221,2.15    c0.294,0,0.573-0.129,0.763-0.354c0.19-0.225,0.272-0.521,0.224-0.811c-0.185-1.111-0.324-3.691,0.427-4.578    c0.009-0.01,0.018-0.02,0.026-0.029c0.804,1.759,2.483,4.771,4.561,4.771c0.553,0,1-0.447,1-1c0-1.644,0.362-4.406,1.202-5.517    c0.335,1.241,1.141,2.517,2.798,2.517c1.068,0,1.783-0.53,2.246-1.24c0.014,0.741-0.099,1.522-0.217,1.999    c-0.073,0.299-0.006,0.615,0.184,0.857c0.189,0.241,0.479,0.384,0.787,0.384c1.58,0,2.637-1.181,3.259-2.212    c0.5,1.11,0.739,2.94,0.741,4.213v24.999C43.035,45.841,41.918,48.504,39.987,50.524z"/></g></g></svg>